<?xml version="1.0" encoding="UTF-8" standalone="no"?>
<!-- Created with Inkscape (http://www.inkscape.org/) -->

<svg
   width="46.7659mm"
   height="49.638985mm"
   viewBox="0 0 46.7659 49.638985"
   version="1.1"
   id="svg1"
   inkscape:version="1.4 (e7c3feb100, 2024-10-09)"
   sodipodi:docname="favicon.svg"
   xmlns:inkscape="http://www.inkscape.org/namespaces/inkscape"
   xmlns:sodipodi="http://sodipodi.sourceforge.net/DTD/sodipodi-0.dtd"
   xmlns="http://www.w3.org/2000/svg"
   xmlns:svg="http://www.w3.org/2000/svg">
  <sodipodi:namedview
     id="namedview1"
     pagecolor="#ffffff"
     bordercolor="#999999"
     borderopacity="1"
     inkscape:showpageshadow="2"
     inkscape:pageopacity="0"
     inkscape:pagecheckerboard="0"
     inkscape:deskcolor="#d1d1d1"
     inkscape:document-units="px"
     showborder="false"
     inkscape:zoom="1.9326196"
     inkscape:cx="2.8458781"
     inkscape:cy="152.12512"
     inkscape:window-width="1920"
     inkscape:window-height="999"
     inkscape:window-x="1920"
     inkscape:window-y="45"
     inkscape:window-maximized="1"
     inkscape:current-layer="layer1" />
  <defs
     id="defs1" />
  <g
     inkscape:label="Camada 1"
     inkscape:groupmode="layer"
     id="layer1"
     transform="translate(-71.855338,-52.541195)">
    <rect
       style="fill:#ffffff;fill-rule:evenodd;stroke-width:1.32292;paint-order:markers stroke fill"
       id="rect1"
       width="46.7659"
       height="49.638985"
       x="71.855339"
       y="52.541195" />
    <g
       id="g56"
       transform="matrix(0.09393958,0,0,0.09393958,71.189708,53.312155)"
       style="fill:#1b3d70;fill-opacity:1;stroke:#ff6600;stroke-width:8.62864;stroke-dasharray:none;stroke-opacity:1"
       inkscape:export-filename="logo.png"
       inkscape:export-xdpi="300"
       inkscape:export-ydpi="300">
	<g
   id="g55"
   style="fill:#1b3d70;fill-opacity:1;stroke:#ff6600;stroke-width:8.62864;stroke-dasharray:none;stroke-opacity:1">
		<path
   d="m 463.645,294.511 v -77.023 l 30.24,-41.276 c 3.996,-5.455 4.394,-12.755 1.014,-18.612 L 460.767,98.465 c -3.38,-5.857 -9.899,-9.166 -16.624,-8.434 L 393.133,95.573 326.455,57.09 305.752,10.175 C 303.023,3.991 296.899,0 290.138,0 h -68.276 c -6.761,0 -12.884,3.991 -15.614,10.175 L 185.545,57.091 118.868,95.574 67.858,90.032 C 61.133,89.3 54.614,92.61 51.234,98.466 l -34.132,59.135 c -3.38,5.857 -2.982,13.157 1.014,18.612 l 30.24,41.275 v 77.023 l -30.24,41.276 c -3.996,5.455 -4.394,12.754 -1.014,18.612 l 34.132,59.135 c 3.38,5.856 9.896,9.167 16.624,8.434 l 51.01,-5.542 66.677,38.483 20.703,46.916 c 2.729,6.184 8.853,10.175 15.614,10.175 h 68.276 c 6.761,0 12.884,-3.991 15.614,-10.175 l 20.703,-46.916 66.677,-38.483 51.01,5.542 c 6.73,0.733 13.245,-2.578 16.624,-8.434 l 34.132,-59.135 c 3.38,-5.857 2.982,-13.157 -1.014,-18.612 z M 254.863,407.324 c -83.44,0 -151.324,-67.884 -151.324,-151.324 0,-83.44 67.884,-151.324 151.324,-151.324 83.44,0 151.324,67.884 151.324,151.324 0,83.44 -67.884,151.324 -151.324,151.324 z"
   id="path55"
   style="fill:#1b3d70;fill-opacity:1;stroke:#ff6600;stroke-width:8.62864;stroke-dasharray:none;stroke-opacity:1" />

	</g>

</g>
    <text
       xml:space="preserve"
       style="font-style:normal;font-variant:normal;font-weight:normal;font-stretch:normal;font-size:11.9223px;line-height:1.4;font-family:Recharge;-inkscape-font-specification:'Recharge, Normal';font-variant-ligatures:normal;font-variant-caps:normal;font-variant-numeric:normal;font-variant-east-asian:normal;text-align:center;text-decoration-color:#000000;letter-spacing:-0.0602288px;word-spacing:-0.204779px;writing-mode:lr-tb;direction:ltr;text-anchor:middle;fill:#1b3d70;fill-opacity:1;fill-rule:evenodd;stroke:#ff6600;stroke-width:1.08386;stroke-linecap:butt;stroke-linejoin:miter;stroke-miterlimit:4;stroke-dasharray:none;stroke-dashoffset:0;stroke-opacity:1;paint-order:markers stroke fill;stop-color:#000000"
       x="88.841835"
       y="81.953247"
       id="text56"><tspan
         sodipodi:role="line"
         id="tspan56"
         x="88.811722"
         y="81.953247"
         style="font-style:normal;font-variant:normal;font-weight:normal;font-stretch:normal;font-size:11.9223px;font-family:Recharge;-inkscape-font-specification:'Recharge, Normal';font-variant-ligatures:normal;font-variant-caps:normal;font-variant-numeric:normal;font-variant-east-asian:normal;stroke-width:1.08386;stroke-dasharray:none">U</tspan></text>
    <text
       xml:space="preserve"
       style="font-style:normal;font-variant:normal;font-weight:normal;font-stretch:normal;font-size:11.9223px;line-height:1.4;font-family:Recharge;-inkscape-font-specification:'Recharge, Normal';font-variant-ligatures:normal;font-variant-caps:normal;font-variant-numeric:normal;font-variant-east-asian:normal;text-align:center;text-decoration-color:#000000;letter-spacing:-0.0605542px;word-spacing:-0.205883px;writing-mode:lr-tb;direction:ltr;text-anchor:middle;fill:#ff6600;fill-opacity:1;fill-rule:evenodd;stroke:#1b3d70;stroke-width:1.16661;stroke-linecap:butt;stroke-linejoin:miter;stroke-miterlimit:4;stroke-dasharray:none;stroke-dashoffset:0;stroke-opacity:1;paint-order:markers stroke fill;stop-color:#000000"
       x="101.49249"
       y="81.867012"
       id="text57"><tspan
         sodipodi:role="line"
         id="tspan57"
         x="101.46221"
         y="81.867012"
         style="font-style:normal;font-variant:normal;font-weight:normal;font-stretch:normal;font-size:11.9223px;font-family:Recharge;-inkscape-font-specification:'Recharge, Normal';font-variant-ligatures:normal;font-variant-caps:normal;font-variant-numeric:normal;font-variant-east-asian:normal;fill:#ff6600;fill-opacity:1;stroke:#1b3d70;stroke-width:1.16661;stroke-dasharray:none;stroke-opacity:1">H</tspan></text>
  </g>
</svg>
